<?xml version="1.0" encoding="UTF-8" standalone="no"?>
<svg
   xmlns:dc="http://purl.org/dc/elements/1.1/"
   xmlns:cc="http://creativecommons.org/ns#"
   xmlns:rdf="http://www.w3.org/1999/02/22-rdf-syntax-ns#"
   xmlns:svg="http://www.w3.org/2000/svg"
   xmlns="http://www.w3.org/2000/svg"
   xmlns:xlink="http://www.w3.org/1999/xlink"
   xmlns:sodipodi="http://sodipodi.sourceforge.net/DTD/sodipodi-0.dtd"
   xmlns:inkscape="http://www.inkscape.org/namespaces/inkscape"
   width="67.64518mm"
   height="59.138653mm"
   viewBox="0 0 67.645179 59.138653"
   version="1.1"
   id="svg8"
   sodipodi:docname="tube.svg"
   inkscape:version="1.0.1 (3bc2e813f5, 2020-09-07)"
   inkscape:export-filename="/home/maojrs/Documents/Link to Posdoc/classes/DIEP_emergence_course/brownian_motion_lecture/figs/inkscape_originals/potential.png"
   inkscape:export-xdpi="96"
   inkscape:export-ydpi="96">
  <defs
     id="defs2">
    <marker
       style="overflow:visible"
       id="marker1497"
       refX="0"
       refY="0"
       orient="auto"
       inkscape:stockid="Arrow2Lend"
       inkscape:isstock="true">
      <path
         transform="matrix(-1.1,0,0,-1.1,-1.1,0)"
         d="M 8.7185878,4.0337352 -2.2072895,0.01601326 8.7185884,-4.0017078 c -1.7454984,2.3720609 -1.7354408,5.6174519 -6e-7,8.035443 z"
         style="fill:#000000;fill-opacity:1;fill-rule:evenodd;stroke:#000000;stroke-width:0.625;stroke-linejoin:round;stroke-opacity:1"
         id="path1255" />
    </marker>
    <marker
       style="overflow:visible"
       id="Arrow2Lend"
       refX="0"
       refY="0"
       orient="auto"
       inkscape:stockid="Arrow2Lend"
       inkscape:isstock="true">
      <path
         transform="matrix(-1.1,0,0,-1.1,-1.1,0)"
         d="M 8.7185878,4.0337352 -2.2072895,0.01601326 8.7185884,-4.0017078 c -1.7454984,2.3720609 -1.7354408,5.6174519 -6e-7,8.035443 z"
         style="fill:#000000;fill-opacity:1;fill-rule:evenodd;stroke:#000000;stroke-width:0.625;stroke-linejoin:round;stroke-opacity:1"
         id="path914" />
    </marker>
    <g
       id="g3687">
      <symbol
         overflow="visible"
         id="symbol5472">
        <path
           style="stroke:none"
           d=""
           id="path7322" />
      </symbol>
      <symbol
         overflow="visible"
         id="symbol9772">
        <path
           style="stroke:none"
           d="M 6.328125,-5.765625 C 6.4375,-6.171875 6.609375,-6.46875 7.40625,-6.5 c 0.046875,0 0.171875,-0.015625 0.171875,-0.203125 0,0 0,-0.109375 -0.125,-0.109375 -0.328125,0 -0.6875,0.03125 -1.015625,0.03125 -0.34375,0 -0.71875,-0.03125 -1.046875,-0.03125 -0.0625,0 -0.171875,0 -0.171875,0.203125 C 5.21875,-6.5 5.3125,-6.5 5.390625,-6.5 c 0.578125,0.015625 0.6875,0.21875 0.6875,0.4375 0,0.03125 -0.03125,0.1875 -0.03125,0.203125 l -0.90625,3.5625 C 4.8125,-0.953125 3.65625,-0.09375 2.65625,-0.09375 c -0.671875,0 -1.203125,-0.4375 -1.203125,-1.296875 0,-0.015625 0,-0.328125 0.109375,-0.765625 L 2.515625,-6.046875 C 2.609375,-6.40625 2.625,-6.5 3.359375,-6.5 c 0.265625,0 0.34375,0 0.34375,-0.203125 0,-0.109375 -0.109375,-0.109375 -0.140625,-0.109375 -0.28125,0 -1,0.03125 -1.28125,0.03125 -0.28125,0 -1,-0.03125 -1.28125,-0.03125 -0.078125,0 -0.1875,0 -0.1875,0.203125 C 0.8125,-6.5 0.890625,-6.5 1.09375,-6.5 c 0.015625,0 0.203125,0 0.375,0.015625 0.171875,0.03125 0.265625,0.03125 0.265625,0.171875 0,0.046875 -0.109375,0.46875 -0.171875,0.703125 l -0.21875,0.875 C 1.25,-4.34375 0.78125,-2.46875 0.734375,-2.265625 0.671875,-2 0.671875,-1.84375 0.671875,-1.6875 c 0,1.203125 0.90625,1.90625 1.953125,1.90625 1.25,0 2.484375,-1.125 2.8125,-2.4375 z m 0,0"
           id="path3006" />
      </symbol>
      <symbol
         overflow="visible"
         id="symbol65">
        <path
           style="stroke:none"
           d="M 3.328125,-3.015625 C 3.390625,-3.265625 3.625,-4.1875 4.3125,-4.1875 c 0.046875,0 0.296875,0 0.5,0.125 C 4.53125,-4 4.34375,-3.765625 4.34375,-3.515625 c 0,0.15625 0.109375,0.34375 0.375,0.34375 0.21875,0 0.53125,-0.171875 0.53125,-0.578125 0,-0.515625 -0.578125,-0.65625 -0.921875,-0.65625 -0.578125,0 -0.921875,0.53125 -1.046875,0.75 -0.25,-0.65625 -0.78125,-0.75 -1.078125,-0.75 -1.03125,0 -1.609375,1.28125 -1.609375,1.53125 0,0.109375 0.109375,0.109375 0.125,0.109375 0.078125,0 0.109375,-0.03125 0.125,-0.109375 0.34375,-1.0625 1,-1.3125 1.34375,-1.3125 0.1875,0 0.53125,0.09375 0.53125,0.671875 0,0.3125 -0.171875,0.96875 -0.53125,2.375 -0.15625,0.609375 -0.515625,1.03125 -0.953125,1.03125 -0.0625,0 -0.28125,0 -0.5,-0.125 0.25,-0.0625 0.46875,-0.265625 0.46875,-0.546875 0,-0.265625 -0.21875,-0.34375 -0.359375,-0.34375 -0.3125,0 -0.546875,0.25 -0.546875,0.578125 0,0.453125 0.484375,0.65625 0.921875,0.65625 0.671875,0 1.03125,-0.703125 1.046875,-0.75 0.125,0.359375 0.484375,0.75 1.078125,0.75 1.03125,0 1.59375,-1.28125 1.59375,-1.53125 0,-0.109375 -0.078125,-0.109375 -0.109375,-0.109375 -0.09375,0 -0.109375,0.046875 -0.140625,0.109375 -0.328125,1.078125 -1,1.3125 -1.3125,1.3125 -0.390625,0 -0.546875,-0.3125 -0.546875,-0.65625 0,-0.21875 0.046875,-0.4375 0.15625,-0.875 z m 0,0"
           id="path5130" />
      </symbol>
      <symbol
         overflow="visible"
         id="symbol8149">
        <path
           style="stroke:none"
           d=""
           id="path7850" />
      </symbol>
      <symbol
         overflow="visible"
         id="symbol2363">
        <path
           style="stroke:none"
           d="m 3.296875,2.390625 c 0,-0.03125 0,-0.046875 -0.171875,-0.21875 C 1.890625,0.921875 1.5625,-0.96875 1.5625,-2.5 c 0,-1.734375 0.375,-3.46875 1.609375,-4.703125 0.125,-0.125 0.125,-0.140625 0.125,-0.171875 0,-0.078125 -0.03125,-0.109375 -0.09375,-0.109375 -0.109375,0 -1,0.6875 -1.59375,1.953125 -0.5,1.09375 -0.625,2.203125 -0.625,3.03125 0,0.78125 0.109375,1.984375 0.65625,3.125 C 2.25,1.84375 3.09375,2.5 3.203125,2.5 c 0.0625,0 0.09375,-0.03125 0.09375,-0.109375 z m 0,0"
           id="path5015" />
      </symbol>
      <symbol
         overflow="visible"
         id="symbol5692">
        <path
           style="stroke:none"
           d="m 2.875,-2.5 c 0,-0.765625 -0.109375,-1.96875 -0.65625,-3.109375 -0.59375,-1.21875 -1.453125,-1.875 -1.546875,-1.875 -0.0625,0 -0.109375,0.046875 -0.109375,0.109375 0,0.03125 0,0.046875 0.1875,0.234375 0.984375,0.984375 1.546875,2.5625 1.546875,4.640625 0,1.71875 -0.359375,3.46875 -1.59375,4.71875 C 0.5625,2.34375 0.5625,2.359375 0.5625,2.390625 0.5625,2.453125 0.609375,2.5 0.671875,2.5 0.765625,2.5 1.671875,1.8125 2.25,0.546875 2.765625,-0.546875 2.875,-1.65625 2.875,-2.5 Z m 0,0"
           id="path1398" />
      </symbol>
    </g>
    <g
       id="g5782">
      <symbol
         overflow="visible"
         id="symbol8675">
        <path
           style="stroke:none"
           d=""
           id="path2926" />
      </symbol>
      <symbol
         overflow="visible"
         id="symbol6756">
        <path
           style="stroke:none"
           d="M 3.328125,-3.015625 C 3.390625,-3.265625 3.625,-4.1875 4.3125,-4.1875 c 0.046875,0 0.296875,0 0.5,0.125 C 4.53125,-4 4.34375,-3.765625 4.34375,-3.515625 c 0,0.15625 0.109375,0.34375 0.375,0.34375 0.21875,0 0.53125,-0.171875 0.53125,-0.578125 0,-0.515625 -0.578125,-0.65625 -0.921875,-0.65625 -0.578125,0 -0.921875,0.53125 -1.046875,0.75 -0.25,-0.65625 -0.78125,-0.75 -1.078125,-0.75 -1.03125,0 -1.609375,1.28125 -1.609375,1.53125 0,0.109375 0.109375,0.109375 0.125,0.109375 0.078125,0 0.109375,-0.03125 0.125,-0.109375 0.34375,-1.0625 1,-1.3125 1.34375,-1.3125 0.1875,0 0.53125,0.09375 0.53125,0.671875 0,0.3125 -0.171875,0.96875 -0.53125,2.375 -0.15625,0.609375 -0.515625,1.03125 -0.953125,1.03125 -0.0625,0 -0.28125,0 -0.5,-0.125 0.25,-0.0625 0.46875,-0.265625 0.46875,-0.546875 0,-0.265625 -0.21875,-0.34375 -0.359375,-0.34375 -0.3125,0 -0.546875,0.25 -0.546875,0.578125 0,0.453125 0.484375,0.65625 0.921875,0.65625 0.671875,0 1.03125,-0.703125 1.046875,-0.75 0.125,0.359375 0.484375,0.75 1.078125,0.75 1.03125,0 1.59375,-1.28125 1.59375,-1.53125 0,-0.109375 -0.078125,-0.109375 -0.109375,-0.109375 -0.09375,0 -0.109375,0.046875 -0.140625,0.109375 -0.328125,1.078125 -1,1.3125 -1.3125,1.3125 -0.390625,0 -0.546875,-0.3125 -0.546875,-0.65625 0,-0.21875 0.046875,-0.4375 0.15625,-0.875 z m 0,0"
           id="path3732" />
      </symbol>
    </g>
    <g
       id="g4523">
      <symbol
         overflow="visible"
         id="symbol9191">
        <path
           style="stroke:none"
           d=""
           id="path3715" />
      </symbol>
      <symbol
         overflow="visible"
         id="symbol5101">
        <path
           style="stroke:none"
           d="m 2.21875,-3.65625 v -2.4375 C 2.21875,-6.4375 2.234375,-6.5 2.703125,-6.5 H 3.9375 c 0.96875,0 1.3125,0.84375 1.3125,1.375 0,0.640625 -0.484375,1.46875 -1.59375,1.46875 z M 4.5625,-3.5625 C 5.53125,-3.75 6.21875,-4.390625 6.21875,-5.125 6.21875,-5.984375 5.296875,-6.8125 4,-6.8125 H 0.359375 V -6.5 H 0.59375 c 0.765625,0 0.796875,0.109375 0.796875,0.46875 v 5.25 c 0,0.359375 -0.03125,0.46875 -0.796875,0.46875 H 0.359375 V 0 h 3.90625 c 1.328125,0 2.21875,-0.890625 2.21875,-1.828125 0,-0.859375 -0.8125,-1.609375 -1.921875,-1.734375 z m -0.609375,3.25 h -1.25 c -0.46875,0 -0.484375,-0.0625 -0.484375,-0.390625 v -2.71875 h 1.875 C 5.078125,-3.421875 5.5,-2.5 5.5,-1.828125 5.5,-1.125 4.96875,-0.3125 3.953125,-0.3125 Z m 0,0"
           id="path1439" />
      </symbol>
      <symbol
         overflow="visible"
         id="symbol6098">
        <path
           style="stroke:none"
           d="M 1.671875,-3.3125 V -4.40625 L 0.28125,-4.296875 v 0.3125 c 0.703125,0 0.78125,0.0625 0.78125,0.5625 V -0.75 c 0,0.4375 -0.109375,0.4375 -0.78125,0.4375 V 0 c 0.390625,-0.015625 0.859375,-0.03125 1.140625,-0.03125 0.390625,0 0.859375,0 1.265625,0.03125 V -0.3125 H 2.46875 c -0.734375,0 -0.75,-0.109375 -0.75,-0.46875 V -2.3125 c 0,-0.984375 0.421875,-1.875 1.171875,-1.875 0.0625,0 0.09375,0 0.109375,0.015625 -0.03125,0 -0.234375,0.125 -0.234375,0.390625 0,0.265625 0.21875,0.421875 0.4375,0.421875 0.171875,0 0.421875,-0.125 0.421875,-0.4375 0,-0.3125 -0.3125,-0.609375 -0.734375,-0.609375 -0.734375,0 -1.09375,0.671875 -1.21875,1.09375 z m 0,0"
           id="path3053" />
      </symbol>
      <symbol
         overflow="visible"
         id="symbol5870">
        <path
           style="stroke:none"
           d="M 4.6875,-2.140625 C 4.6875,-3.40625 3.703125,-4.46875 2.5,-4.46875 c -1.25,0 -2.21875,1.09375 -2.21875,2.328125 0,1.296875 1.03125,2.25 2.203125,2.25 1.203125,0 2.203125,-0.984375 2.203125,-2.25 z m -2.1875,2 c -0.4375,0 -0.875,-0.203125 -1.140625,-0.671875 -0.25,-0.4375 -0.25,-1.046875 -0.25,-1.40625 0,-0.390625 0,-0.921875 0.234375,-1.359375 C 1.609375,-4.03125 2.078125,-4.25 2.484375,-4.25 c 0.4375,0 0.859375,0.21875 1.125,0.65625 0.265625,0.421875 0.265625,1 0.265625,1.375 0,0.359375 0,0.90625 -0.21875,1.34375 C 3.421875,-0.421875 2.984375,-0.140625 2.5,-0.140625 Z m 0,0"
           id="path6126" />
      </symbol>
      <symbol
         overflow="visible"
         id="symbol3580">
        <path
           style="stroke:none"
           d="m 6.171875,-3.34375 c 0.171875,-0.5 0.484375,-0.640625 0.84375,-0.640625 v -0.3125 C 6.78125,-4.28125 6.5,-4.265625 6.28125,-4.265625 c -0.296875,0 -0.734375,-0.015625 -0.921875,-0.03125 v 0.3125 c 0.359375,0 0.578125,0.1875 0.578125,0.46875 0,0.0625 0,0.09375 -0.0625,0.21875 L 4.96875,-0.75 3.984375,-3.53125 C 3.953125,-3.65625 3.9375,-3.671875 3.9375,-3.71875 c 0,-0.265625 0.390625,-0.265625 0.59375,-0.265625 v -0.3125 c -0.296875,0.015625 -0.796875,0.03125 -1.046875,0.03125 -0.296875,0 -0.578125,-0.015625 -0.875,-0.03125 v 0.3125 c 0.359375,0 0.515625,0.015625 0.625,0.140625 0.046875,0.0625 0.15625,0.359375 0.21875,0.546875 L 2.609375,-0.875 1.65625,-3.53125 C 1.609375,-3.65625 1.609375,-3.671875 1.609375,-3.71875 1.609375,-3.984375 2,-3.984375 2.1875,-3.984375 v -0.3125 c -0.296875,0.015625 -0.859375,0.03125 -1.078125,0.03125 -0.046875,0 -0.578125,-0.015625 -0.9375,-0.03125 v 0.3125 c 0.5,0 0.625,0.03125 0.75,0.34375 l 1.25,3.53125 C 2.21875,0.03125 2.25,0.109375 2.375,0.109375 c 0.140625,0 0.15625,-0.0625 0.203125,-0.203125 l 1.015625,-2.8125 1.015625,2.828125 c 0.03125,0.109375 0.0625,0.1875 0.203125,0.1875 0.125,0 0.15625,-0.09375 0.1875,-0.1875 z m 0,0"
           id="path9167" />
      </symbol>
      <symbol
         overflow="visible"
         id="symbol429">
        <path
           style="stroke:none"
           d="M 1.09375,-3.421875 V -0.75 c 0,0.4375 -0.109375,0.4375 -0.78125,0.4375 V 0 c 0.359375,-0.015625 0.859375,-0.03125 1.140625,-0.03125 0.25,0 0.765625,0.015625 1.109375,0.03125 v -0.3125 c -0.671875,0 -0.78125,0 -0.78125,-0.4375 V -2.59375 C 1.78125,-3.625 2.5,-4.1875 3.125,-4.1875 c 0.640625,0 0.75,0.53125 0.75,1.109375 V -0.75 c 0,0.4375 -0.109375,0.4375 -0.78125,0.4375 V 0 c 0.34375,-0.015625 0.859375,-0.03125 1.125,-0.03125 0.25,0 0.78125,0.015625 1.109375,0.03125 v -0.3125 c -0.515625,0 -0.765625,0 -0.765625,-0.296875 v -1.90625 c 0,-0.859375 0,-1.15625 -0.3125,-1.515625 -0.140625,-0.171875 -0.46875,-0.375 -1.046875,-0.375 C 2.46875,-4.40625 2,-3.984375 1.71875,-3.359375 V -4.40625 L 0.3125,-4.296875 v 0.3125 c 0.703125,0 0.78125,0.0625 0.78125,0.5625 z m 0,0"
           id="path8147" />
      </symbol>
      <symbol
         overflow="visible"
         id="symbol9554">
        <path
           style="stroke:none"
           d="M 1.765625,-4.40625 0.375,-4.296875 v 0.3125 c 0.640625,0 0.734375,0.0625 0.734375,0.546875 V -0.75 c 0,0.4375 -0.109375,0.4375 -0.78125,0.4375 V 0 C 0.640625,-0.015625 1.1875,-0.03125 1.421875,-0.03125 1.78125,-0.03125 2.125,-0.015625 2.46875,0 v -0.3125 c -0.671875,0 -0.703125,-0.046875 -0.703125,-0.4375 z m 0.03125,-1.734375 c 0,-0.3125 -0.234375,-0.53125 -0.515625,-0.53125 -0.3125,0 -0.53125,0.265625 -0.53125,0.53125 0,0.265625 0.21875,0.53125 0.53125,0.53125 0.28125,0 0.515625,-0.21875 0.515625,-0.53125 z m 0,0"
           id="path8647" />
      </symbol>
      <symbol
         overflow="visible"
         id="symbol3270">
        <path
           style="stroke:none"
           d="m 3.3125,-0.75 c 0.046875,0.390625 0.3125,0.8125 0.78125,0.8125 0.21875,0 0.828125,-0.140625 0.828125,-0.953125 v -0.5625 h -0.25 v 0.5625 c 0,0.578125 -0.25,0.640625 -0.359375,0.640625 -0.328125,0 -0.375,-0.453125 -0.375,-0.5 v -1.984375 c 0,-0.421875 0,-0.8125 -0.359375,-1.1875 C 3.1875,-4.3125 2.6875,-4.46875 2.21875,-4.46875 c -0.828125,0 -1.515625,0.46875 -1.515625,1.125 0,0.296875 0.203125,0.46875 0.46875,0.46875 0.28125,0 0.453125,-0.203125 0.453125,-0.453125 0,-0.125 -0.046875,-0.453125 -0.515625,-0.453125 C 1.390625,-4.140625 1.875,-4.25 2.1875,-4.25 c 0.5,0 1.0625,0.390625 1.0625,1.28125 v 0.359375 c -0.515625,0.03125 -1.203125,0.0625 -1.828125,0.359375 -0.75,0.34375 -1,0.859375 -1,1.296875 0,0.8125 0.96875,1.0625 1.59375,1.0625 0.65625,0 1.109375,-0.40625 1.296875,-0.859375 z M 3.25,-2.390625 v 1 c 0,0.9375 -0.71875,1.28125 -1.171875,1.28125 -0.484375,0 -0.890625,-0.34375 -0.890625,-0.84375 0,-0.546875 0.421875,-1.375 2.0625,-1.4375 z m 0,0"
           id="path3358" />
      </symbol>
    </g>
    <g
       id="g4300">
      <symbol
         overflow="visible"
         id="symbol3997">
        <path
           style="stroke:none"
           d=""
           id="path4914" />
      </symbol>
      <symbol
         overflow="visible"
         id="symbol8007">
        <path
           style="stroke:none"
           d="m 1.71875,-3.75 v -0.65625 l -1.4375,0.109375 v 0.3125 c 0.703125,0 0.78125,0.0625 0.78125,0.5 v 4.65625 C 1.0625,1.625 0.953125,1.625 0.28125,1.625 V 1.9375 C 0.625,1.921875 1.140625,1.90625 1.390625,1.90625 c 0.28125,0 0.78125,0.015625 1.125,0.03125 V 1.625 C 1.859375,1.625 1.75,1.625 1.75,1.171875 V -0.59375 c 0.046875,0.171875 0.46875,0.703125 1.21875,0.703125 1.1875,0 2.21875,-0.984375 2.21875,-2.265625 0,-1.265625 -0.953125,-2.25 -2.078125,-2.25 -0.78125,0 -1.203125,0.4375 -1.390625,0.65625 z M 1.75,-1.140625 v -2.21875 C 2.03125,-3.875 2.515625,-4.15625 3.03125,-4.15625 c 0.734375,0 1.328125,0.875 1.328125,2 0,1.203125 -0.6875,2.046875 -1.421875,2.046875 -0.40625,0 -0.78125,-0.203125 -1.046875,-0.609375 C 1.75,-0.921875 1.75,-0.9375 1.75,-1.140625 Z m 0,0"
           id="path232" />
      </symbol>
      <symbol
         overflow="visible"
         id="symbol3823">
        <path
           style="stroke:none"
           d="m 3.3125,-0.75 c 0.046875,0.390625 0.3125,0.8125 0.78125,0.8125 0.21875,0 0.828125,-0.140625 0.828125,-0.953125 v -0.5625 h -0.25 v 0.5625 c 0,0.578125 -0.25,0.640625 -0.359375,0.640625 -0.328125,0 -0.375,-0.453125 -0.375,-0.5 v -1.984375 c 0,-0.421875 0,-0.8125 -0.359375,-1.1875 C 3.1875,-4.3125 2.6875,-4.46875 2.21875,-4.46875 c -0.828125,0 -1.515625,0.46875 -1.515625,1.125 0,0.296875 0.203125,0.46875 0.46875,0.46875 0.28125,0 0.453125,-0.203125 0.453125,-0.453125 0,-0.125 -0.046875,-0.453125 -0.515625,-0.453125 C 1.390625,-4.140625 1.875,-4.25 2.1875,-4.25 c 0.5,0 1.0625,0.390625 1.0625,1.28125 v 0.359375 c -0.515625,0.03125 -1.203125,0.0625 -1.828125,0.359375 -0.75,0.34375 -1,0.859375 -1,1.296875 0,0.8125 0.96875,1.0625 1.59375,1.0625 0.65625,0 1.109375,-0.40625 1.296875,-0.859375 z M 3.25,-2.390625 v 1 c 0,0.9375 -0.71875,1.28125 -1.171875,1.28125 -0.484375,0 -0.890625,-0.34375 -0.890625,-0.84375 0,-0.546875 0.421875,-1.375 2.0625,-1.4375 z m 0,0"
           id="path336" />
      </symbol>
      <symbol
         overflow="visible"
         id="symbol9156">
        <path
           style="stroke:none"
           d="M 1.671875,-3.3125 V -4.40625 L 0.28125,-4.296875 v 0.3125 c 0.703125,0 0.78125,0.0625 0.78125,0.5625 V -0.75 c 0,0.4375 -0.109375,0.4375 -0.78125,0.4375 V 0 c 0.390625,-0.015625 0.859375,-0.03125 1.140625,-0.03125 0.390625,0 0.859375,0 1.265625,0.03125 V -0.3125 H 2.46875 c -0.734375,0 -0.75,-0.109375 -0.75,-0.46875 V -2.3125 c 0,-0.984375 0.421875,-1.875 1.171875,-1.875 0.0625,0 0.09375,0 0.109375,0.015625 -0.03125,0 -0.234375,0.125 -0.234375,0.390625 0,0.265625 0.21875,0.421875 0.4375,0.421875 0.171875,0 0.421875,-0.125 0.421875,-0.4375 0,-0.3125 -0.3125,-0.609375 -0.734375,-0.609375 -0.734375,0 -1.09375,0.671875 -1.21875,1.09375 z m 0,0"
           id="path2982" />
      </symbol>
      <symbol
         overflow="visible"
         id="symbol8429">
        <path
           style="stroke:none"
           d="m 1.71875,-3.984375 h 1.4375 v -0.3125 H 1.71875 V -6.125 h -0.25 c 0,0.8125 -0.296875,1.875 -1.28125,1.921875 v 0.21875 h 0.84375 v 2.75 c 0,1.21875 0.9375,1.34375 1.296875,1.34375 0.703125,0 0.984375,-0.703125 0.984375,-1.34375 v -0.5625 h -0.25 V -1.25 c 0,0.734375 -0.296875,1.109375 -0.671875,1.109375 -0.671875,0 -0.671875,-0.90625 -0.671875,-1.078125 z m 0,0"
           id="path2892" />
      </symbol>
      <symbol
         overflow="visible"
         id="symbol1478">
        <path
           style="stroke:none"
           d="M 1.765625,-4.40625 0.375,-4.296875 v 0.3125 c 0.640625,0 0.734375,0.0625 0.734375,0.546875 V -0.75 c 0,0.4375 -0.109375,0.4375 -0.78125,0.4375 V 0 C 0.640625,-0.015625 1.1875,-0.03125 1.421875,-0.03125 1.78125,-0.03125 2.125,-0.015625 2.46875,0 v -0.3125 c -0.671875,0 -0.703125,-0.046875 -0.703125,-0.4375 z m 0.03125,-1.734375 c 0,-0.3125 -0.234375,-0.53125 -0.515625,-0.53125 -0.3125,0 -0.53125,0.265625 -0.53125,0.53125 0,0.265625 0.21875,0.53125 0.53125,0.53125 0.28125,0 0.515625,-0.21875 0.515625,-0.53125 z m 0,0"
           id="path6011" />
      </symbol>
      <symbol
         overflow="visible"
         id="symbol8290">
        <path
           style="stroke:none"
           d="m 1.171875,-2.171875 c 0,-1.625 0.8125,-2.046875 1.34375,-2.046875 0.09375,0 0.71875,0.015625 1.0625,0.375 -0.40625,0.03125 -0.46875,0.328125 -0.46875,0.453125 0,0.265625 0.1875,0.453125 0.453125,0.453125 0.265625,0 0.46875,-0.15625 0.46875,-0.46875 0,-0.671875 -0.765625,-1.0625 -1.53125,-1.0625 -1.25,0 -2.15625,1.078125 -2.15625,2.3125 0,1.28125 0.984375,2.265625 2.140625,2.265625 1.328125,0 1.65625,-1.203125 1.65625,-1.296875 0,-0.09375 -0.109375,-0.09375 -0.140625,-0.09375 -0.078125,0 -0.109375,0.03125 -0.125,0.09375 -0.28125,0.921875 -0.9375,1.046875 -1.296875,1.046875 -0.53125,0 -1.40625,-0.421875 -1.40625,-2.03125 z m 0,0"
           id="path9837" />
      </symbol>
      <symbol
         overflow="visible"
         id="symbol1495">
        <path
           style="stroke:none"
           d="M 1.765625,-6.921875 0.328125,-6.8125 V -6.5 c 0.703125,0 0.78125,0.0625 0.78125,0.5625 V -0.75 c 0,0.4375 -0.109375,0.4375 -0.78125,0.4375 V 0 C 0.65625,-0.015625 1.1875,-0.03125 1.4375,-0.03125 c 0.25,0 0.734375,0.015625 1.109375,0.03125 v -0.3125 c -0.671875,0 -0.78125,0 -0.78125,-0.4375 z m 0,0"
           id="path5022" />
      </symbol>
      <symbol
         overflow="visible"
         id="symbol1399">
        <path
           style="stroke:none"
           d="M 1.109375,-2.515625 C 1.171875,-4 2.015625,-4.25 2.359375,-4.25 c 1.015625,0 1.125,1.34375 1.125,1.734375 z m 0,0.21875 h 2.78125 c 0.21875,0 0.25,0 0.25,-0.21875 0,-0.984375 -0.546875,-1.953125 -1.78125,-1.953125 -1.15625,0 -2.078125,1.03125 -2.078125,2.28125 0,1.328125 1.046875,2.296875 2.1875,2.296875 C 3.6875,0.109375 4.140625,-1 4.140625,-1.1875 4.140625,-1.28125 4.0625,-1.3125 4,-1.3125 c -0.078125,0 -0.109375,0.0625 -0.125,0.140625 -0.34375,1.03125 -1.25,1.03125 -1.34375,1.03125 -0.5,0 -0.890625,-0.296875 -1.125,-0.671875 -0.296875,-0.46875 -0.296875,-1.125 -0.296875,-1.484375 z m 0,0"
           id="path720" />
      </symbol>
      <symbol
         overflow="visible"
         id="symbol2472">
        <path
           style="stroke:none"
           d="m 2.078125,-1.9375 c 0.21875,0.046875 1.03125,0.203125 1.03125,0.921875 0,0.5 -0.34375,0.90625 -1.125,0.90625 -0.84375,0 -1.203125,-0.5625 -1.390625,-1.421875 C 0.5625,-1.65625 0.5625,-1.6875 0.453125,-1.6875 c -0.125,0 -0.125,0.0625 -0.125,0.234375 V -0.125 c 0,0.171875 0,0.234375 0.109375,0.234375 0.046875,0 0.0625,-0.015625 0.25,-0.203125 0.015625,-0.015625 0.015625,-0.03125 0.203125,-0.21875 0.4375,0.40625 0.890625,0.421875 1.09375,0.421875 1.140625,0 1.609375,-0.671875 1.609375,-1.390625 0,-0.515625 -0.296875,-0.828125 -0.421875,-0.9375 C 2.84375,-2.546875 2.453125,-2.625 2.03125,-2.703125 1.46875,-2.8125 0.8125,-2.9375 0.8125,-3.515625 c 0,-0.359375 0.25,-0.765625 1.109375,-0.765625 1.09375,0 1.15625,0.90625 1.171875,1.203125 0,0.09375 0.09375,0.09375 0.109375,0.09375 0.140625,0 0.140625,-0.046875 0.140625,-0.234375 v -1.015625 c 0,-0.15625 0,-0.234375 -0.109375,-0.234375 -0.046875,0 -0.078125,0 -0.203125,0.125 -0.03125,0.03125 -0.125,0.125 -0.171875,0.15625 -0.375,-0.28125 -0.78125,-0.28125 -0.9375,-0.28125 -1.21875,0 -1.59375,0.671875 -1.59375,1.234375 0,0.34375 0.15625,0.625 0.421875,0.84375 0.328125,0.25 0.609375,0.3125 1.328125,0.453125 z m 0,0"
           id="path8778" />
      </symbol>
    </g>
  </defs>
  <sodipodi:namedview
     id="base"
     pagecolor="#ffffff"
     bordercolor="#666666"
     borderopacity="1.0"
     inkscape:pageopacity="0.0"
     inkscape:pageshadow="2"
     inkscape:zoom="1.979899"
     inkscape:cx="169.06912"
     inkscape:cy="193.63602"
     inkscape:document-units="mm"
     inkscape:current-layer="layer1"
     inkscape:document-rotation="0"
     showgrid="false"
     inkscape:window-width="2560"
     inkscape:window-height="1384"
     inkscape:window-x="0"
     inkscape:window-y="28"
     inkscape:window-maximized="1" />
  <metadata
     id="metadata5">
    <rdf:RDF>
      <cc:Work
         rdf:about="">
        <dc:format>image/svg+xml</dc:format>
        <dc:type
           rdf:resource="http://purl.org/dc/dcmitype/StillImage" />
        <dc:title />
      </cc:Work>
    </rdf:RDF>
  </metadata>
  <g
     inkscape:label="Layer 1"
     inkscape:groupmode="layer"
     id="layer1"
     transform="translate(-16.964204,-9.4787449)">
    <path
       style="fill:none;stroke:#000000;stroke-width:1;stroke-linecap:butt;stroke-linejoin:miter;stroke-miterlimit:4;stroke-dasharray:none;stroke-opacity:1"
       d="m 42.095105,90.831689 c 0,0 14.876425,41.271251 33.6146,41.265931 18.590527,-0.005 32.961065,-40.665256 32.961065,-40.665256"
       id="path10"
       sodipodi:nodetypes="csc" />
    <ellipse
       style="fill:#000000;fill-opacity:1;stroke-width:0.21605;stroke-linejoin:bevel;stroke-miterlimit:4;stroke-dasharray:none"
       id="path835"
       cx="62.782246"
       cy="51.496418"
       rx="0.60903978"
       ry="0.61466753"
       inkscape:export-xdpi="96"
       inkscape:export-ydpi="96" />
    <g
       inkscape:label=""
       transform="matrix(0.55200731,0,0,0.55200731,57.049319,57.075115)"
       id="g864">
      <g
         id="g5275">
        <g
           style="fill:#000000;fill-opacity:1"
           id="g4634">
          <use
             xlink:href="#symbol9772"
             x="91.925003"
             y="81.962997"
             id="use7554"
             width="100%"
             height="100%" />
        </g>
        <g
           style="fill:#000000;fill-opacity:1"
           id="g6033">
          <use
             xlink:href="#symbol2363"
             x="99.814003"
             y="81.962997"
             id="use6990"
             width="100%"
             height="100%" />
        </g>
        <g
           style="fill:#000000;fill-opacity:1"
           id="g4542">
          <use
             xlink:href="#symbol65"
             x="103.688"
             y="81.962997"
             id="use6648"
             width="100%"
             height="100%" />
        </g>
        <g
           style="fill:#000000;fill-opacity:1"
           id="g2239">
          <use
             xlink:href="#symbol5692"
             x="109.382"
             y="81.962997"
             id="use2680"
             width="100%"
             height="100%" />
        </g>
      </g>
    </g>
    <path
       style="fill:none;stroke:#000000;stroke-width:0.265;stroke-linecap:butt;stroke-linejoin:miter;stroke-miterlimit:4;stroke-dasharray:none;stroke-opacity:1;marker-end:url(#Arrow2Lend)"
       d="M 78.780255,67.385211 79.044722,9.921764"
       id="path891"
       sodipodi:nodetypes="cc"
       inkscape:export-xdpi="96"
       inkscape:export-ydpi="96" />
    <path
       style="fill:none;stroke:#000000;stroke-width:1;stroke-linecap:butt;stroke-linejoin:miter;stroke-miterlimit:4;stroke-dasharray:none;stroke-opacity:1"
       d="M 51.978683,10.4777 V 68.117397 H 74.665566 V 9.7667418"
       id="path906"
       sodipodi:nodetypes="cccc"
       inkscape:export-xdpi="96"
       inkscape:export-ydpi="96" />
    <ellipse
       style="fill:#000000;fill-opacity:1;stroke-width:0.21605;stroke-linejoin:bevel;stroke-miterlimit:4;stroke-dasharray:none"
       id="path835-3"
       cx="55.663445"
       cy="54.005356"
       rx="0.60903978"
       ry="0.61466759"
       inkscape:export-xdpi="96"
       inkscape:export-ydpi="96" />
    <ellipse
       style="fill:#000000;fill-opacity:1;stroke-width:0.21605;stroke-linejoin:bevel;stroke-miterlimit:4;stroke-dasharray:none"
       id="path835-6"
       cx="58.886536"
       cy="60.247032"
       rx="0.60903978"
       ry="0.61466759"
       inkscape:export-xdpi="96"
       inkscape:export-ydpi="96" />
    <ellipse
       style="fill:#000000;fill-opacity:1;stroke-width:0.21605;stroke-linejoin:bevel;stroke-miterlimit:4;stroke-dasharray:none"
       id="path835-7"
       cx="64.766464"
       cy="64.790611"
       rx="0.60903978"
       ry="0.61466759"
       inkscape:export-xdpi="96"
       inkscape:export-ydpi="96" />
    <ellipse
       style="fill:#000000;fill-opacity:1;stroke-width:0.21605;stroke-linejoin:bevel;stroke-miterlimit:4;stroke-dasharray:none"
       id="path835-5"
       cx="60.315956"
       cy="63.033134"
       rx="0.60903978"
       ry="0.61466759"
       inkscape:export-xdpi="96"
       inkscape:export-ydpi="96" />
    <ellipse
       style="fill:#000000;fill-opacity:1;stroke-width:0.21605;stroke-linejoin:bevel;stroke-miterlimit:4;stroke-dasharray:none"
       id="path835-35"
       cx="71.07457"
       cy="59.755508"
       rx="0.60903978"
       ry="0.61466759"
       inkscape:export-xdpi="96"
       inkscape:export-ydpi="96" />
    <ellipse
       style="fill:#000000;fill-opacity:1;stroke-width:0.21605;stroke-linejoin:bevel;stroke-miterlimit:4;stroke-dasharray:none"
       id="path835-62"
       cx="65.819687"
       cy="55.876244"
       rx="0.60903978"
       ry="0.61466759"
       inkscape:export-xdpi="96"
       inkscape:export-ydpi="96" />
    <ellipse
       style="fill:#000000;fill-opacity:1;stroke-width:0.21605;stroke-linejoin:bevel;stroke-miterlimit:4;stroke-dasharray:none"
       id="path835-9"
       cx="69.176414"
       cy="62.652458"
       rx="0.60903978"
       ry="0.61466759"
       inkscape:export-xdpi="96"
       inkscape:export-ydpi="96" />
    <ellipse
       style="fill:#000000;fill-opacity:1;stroke-width:0.21605;stroke-linejoin:bevel;stroke-miterlimit:4;stroke-dasharray:none"
       id="path835-1"
       cx="62.895576"
       cy="61.717014"
       rx="0.60903978"
       ry="0.61466759"
       inkscape:export-xdpi="96"
       inkscape:export-ydpi="96" />
    <ellipse
       style="fill:#000000;fill-opacity:1;stroke-width:0.21605;stroke-linejoin:bevel;stroke-miterlimit:4;stroke-dasharray:none"
       id="path835-2"
       cx="56.614742"
       cy="63.053364"
       rx="0.60903978"
       ry="0.61466759"
       inkscape:export-xdpi="96"
       inkscape:export-ydpi="96" />
    <ellipse
       style="fill:#000000;fill-opacity:1;stroke-width:0.21605;stroke-linejoin:bevel;stroke-miterlimit:4;stroke-dasharray:none"
       id="path835-70"
       cx="55.019222"
       cy="58.467628"
       rx="0.60903978"
       ry="0.61466759"
       inkscape:export-xdpi="96"
       inkscape:export-ydpi="96" />
    <ellipse
       style="fill:#000000;fill-opacity:1;stroke-width:0.21605;stroke-linejoin:bevel;stroke-miterlimit:4;stroke-dasharray:none"
       id="path835-93"
       cx="66.265526"
       cy="59.116112"
       rx="0.60903978"
       ry="0.61466759"
       inkscape:export-xdpi="96"
       inkscape:export-ydpi="96" />
    <ellipse
       style="fill:#000000;fill-opacity:1;stroke-width:0.21605;stroke-linejoin:bevel;stroke-miterlimit:4;stroke-dasharray:none"
       id="path835-60"
       cx="59.538857"
       cy="52.936279"
       rx="0.60903978"
       ry="0.61466759"
       inkscape:export-xdpi="96"
       inkscape:export-ydpi="96" />
    <ellipse
       style="fill:#000000;fill-opacity:1;stroke-width:0.21605;stroke-linejoin:bevel;stroke-miterlimit:4;stroke-dasharray:none"
       id="path835-626"
       cx="61.944283"
       cy="48.526333"
       rx="0.60903978"
       ry="0.61466759"
       inkscape:export-xdpi="96"
       inkscape:export-ydpi="96" />
    <ellipse
       style="fill:#000000;fill-opacity:1;stroke-width:0.21605;stroke-linejoin:bevel;stroke-miterlimit:4;stroke-dasharray:none"
       id="path835-18"
       cx="68.374603"
       cy="54.500736"
       rx="0.60903978"
       ry="0.61466759"
       inkscape:export-xdpi="96"
       inkscape:export-ydpi="96" />
    <ellipse
       style="fill:#000000;fill-opacity:1;stroke-width:0.21605;stroke-linejoin:bevel;stroke-miterlimit:4;stroke-dasharray:none"
       id="path835-79"
       cx="62.895576"
       cy="55.837086"
       rx="0.60903978"
       ry="0.61466759"
       inkscape:export-xdpi="96"
       inkscape:export-ydpi="96" />
    <ellipse
       style="fill:#000000;fill-opacity:1;stroke-width:0.21605;stroke-linejoin:bevel;stroke-miterlimit:4;stroke-dasharray:none"
       id="path835-20"
       cx="59.153805"
       cy="47.418095"
       rx="0.60903978"
       ry="0.61466759"
       inkscape:export-xdpi="96"
       inkscape:export-ydpi="96" />
    <ellipse
       style="fill:#000000;fill-opacity:1;stroke-width:0.21605;stroke-linejoin:bevel;stroke-miterlimit:4;stroke-dasharray:none"
       id="path835-23"
       cx="65.701904"
       cy="-44.210861"
       rx="0.60903978"
       ry="0.61466759"
       transform="scale(1,-1)"
       inkscape:export-xdpi="96"
       inkscape:export-ydpi="96" />
    <ellipse
       style="fill:#000000;fill-opacity:1;stroke-width:0.21605;stroke-linejoin:bevel;stroke-miterlimit:4;stroke-dasharray:none"
       id="path835-75"
       cx="59.40522"
       cy="41.97823"
       rx="0.60903978"
       ry="0.61466759"
       inkscape:export-xdpi="96"
       inkscape:export-ydpi="96" />
    <ellipse
       style="fill:#000000;fill-opacity:1;stroke-width:0.21605;stroke-linejoin:bevel;stroke-miterlimit:4;stroke-dasharray:none"
       id="path835-92"
       cx="61.810646"
       cy="32.623795"
       rx="0.60903978"
       ry="0.61466759"
       inkscape:export-xdpi="96"
       inkscape:export-ydpi="96" />
    <ellipse
       style="fill:#000000;fill-opacity:1;stroke-width:0.21605;stroke-linejoin:bevel;stroke-miterlimit:4;stroke-dasharray:none"
       id="path835-28"
       cx="65.568275"
       cy="36.059139"
       rx="0.60903978"
       ry="0.61466759"
       inkscape:export-xdpi="96"
       inkscape:export-ydpi="96" />
    <ellipse
       style="fill:#000000;fill-opacity:1;stroke-width:0.21605;stroke-linejoin:bevel;stroke-miterlimit:4;stroke-dasharray:none"
       id="path835-97"
       cx="58.218361"
       cy="35.79187"
       rx="0.60903978"
       ry="0.61466759"
       inkscape:export-xdpi="96"
       inkscape:export-ydpi="96" />
    <ellipse
       style="fill:#000000;fill-opacity:1;stroke-width:0.21605;stroke-linejoin:bevel;stroke-miterlimit:4;stroke-dasharray:none"
       id="path835-36"
       cx="64.766464"
       cy="27.239246"
       rx="0.60903978"
       ry="0.61466759"
       inkscape:export-xdpi="96"
       inkscape:export-ydpi="96" />
    <ellipse
       style="fill:#000000;fill-opacity:1;stroke-width:0.21605;stroke-linejoin:bevel;stroke-miterlimit:4;stroke-dasharray:none"
       id="path835-12"
       cx="59.939758"
       cy="20.062128"
       rx="0.60903978"
       ry="0.61466759"
       inkscape:export-xdpi="96"
       inkscape:export-ydpi="96" />
    <ellipse
       style="fill:#000000;fill-opacity:1;stroke-width:0.21605;stroke-linejoin:bevel;stroke-miterlimit:4;stroke-dasharray:none"
       id="path835-931"
       cx="61.960133"
       cy="14.677579"
       rx="0.60903978"
       ry="0.61466759"
       inkscape:export-xdpi="96"
       inkscape:export-ydpi="96" />
    <ellipse
       style="fill:#000000;fill-opacity:1;stroke-width:0.21605;stroke-linejoin:bevel;stroke-miterlimit:4;stroke-dasharray:none"
       id="path835-94"
       cx="67.0224"
       cy="49.862679"
       rx="0.60903978"
       ry="0.61466759"
       inkscape:export-xdpi="96"
       inkscape:export-ydpi="96" />
    <ellipse
       style="fill:#000000;fill-opacity:1;stroke-width:0.21605;stroke-linejoin:bevel;stroke-miterlimit:4;stroke-dasharray:none"
       id="path835-78"
       cx="59.170509"
       cy="57.129379"
       rx="0.60903978"
       ry="0.61466759"
       inkscape:export-xdpi="96"
       inkscape:export-ydpi="96" />
    <ellipse
       style="fill:#000000;fill-opacity:1;stroke-width:0.21605;stroke-linejoin:bevel;stroke-miterlimit:4;stroke-dasharray:none"
       id="path835-4"
       cx="70.37912"
       cy="65.325157"
       rx="0.60903978"
       ry="0.61466759"
       inkscape:export-xdpi="96"
       inkscape:export-ydpi="96" />
    <ellipse
       style="fill:#000000;fill-opacity:1;stroke-width:0.21605;stroke-linejoin:bevel;stroke-miterlimit:4;stroke-dasharray:none"
       id="path835-50"
       cx="58.619263"
       cy="65.726059"
       rx="0.60903978"
       ry="0.61466759"
       inkscape:export-xdpi="96"
       inkscape:export-ydpi="96" />
    <g
       inkscape:label=""
       transform="matrix(0.6949942,0,0,0.6949942,17.073319,9.7215996)"
       id="g1168"
       inkscape:export-xdpi="96"
       inkscape:export-ydpi="96">
      <g
         id="g6234">
        <g
           style="fill:#000000;fill-opacity:1"
           id="g4705">
          <use
             xlink:href="#symbol6756"
             x="91.925003"
             y="81.962997"
             id="use2826"
             width="100%"
             height="100%" />
        </g>
      </g>
    </g>
    <g
       inkscape:label=""
       transform="matrix(0.6949942,0,0,0.6949942,-47.172903,-21.47683)"
       id="g170"
       inkscape:export-xdpi="96"
       inkscape:export-ydpi="96">
      <g
         id="g2932">
        <g
           style="fill:#000000;fill-opacity:1"
           id="g6724">
          <use
             xlink:href="#symbol5101"
             x="91.925003"
             y="81.962997"
             id="use3559"
             width="100%"
             height="100%" />
          <use
             xlink:href="#symbol6098"
             x="98.981506"
             y="81.962997"
             id="use7315"
             width="100%"
             height="100%" />
          <use
             xlink:href="#symbol5870"
             x="102.88386"
             y="81.962997"
             id="use5485"
             width="100%"
             height="100%" />
        </g>
        <g
           style="fill:#000000;fill-opacity:1"
           id="g3737">
          <use
             xlink:href="#symbol3580"
             x="107.5862"
             y="81.962997"
             id="use2944"
             width="100%"
             height="100%" />
          <use
             xlink:href="#symbol429"
             x="114.7812"
             y="81.962997"
             id="use9122"
             width="100%"
             height="100%" />
          <use
             xlink:href="#symbol9554"
             x="120.31641"
             y="81.962997"
             id="use6635"
             width="100%"
             height="100%" />
          <use
             xlink:href="#symbol3270"
             x="123.08403"
             y="81.962997"
             id="use5405"
             width="100%"
             height="100%" />
          <use
             xlink:href="#symbol429"
             x="128.06532"
             y="81.962997"
             id="use9428"
             width="100%"
             height="100%" />
        </g>
      </g>
    </g>
    <g
       inkscape:label=""
       transform="matrix(0.6949942,0,0,0.6949942,-45.047069,-15.397432)"
       id="g333"
       inkscape:export-xdpi="96"
       inkscape:export-ydpi="96">
      <g
         id="g445">
        <g
           style="fill:#000000;fill-opacity:1"
           id="g1597">
          <use
             xlink:href="#symbol8007"
             x="91.925003"
             y="81.962997"
             id="use7622"
             width="100%"
             height="100%" />
          <use
             xlink:href="#symbol3823"
             x="97.46022"
             y="81.962997"
             id="use8758"
             width="100%"
             height="100%" />
          <use
             xlink:href="#symbol9156"
             x="102.44152"
             y="81.962997"
             id="use339"
             width="100%"
             height="100%" />
          <use
             xlink:href="#symbol8429"
             x="106.34387"
             y="81.962997"
             id="use5865"
             width="100%"
             height="100%" />
          <use
             xlink:href="#symbol1478"
             x="110.21832"
             y="81.962997"
             id="use8142"
             width="100%"
             height="100%" />
          <use
             xlink:href="#symbol8290"
             x="112.98594"
             y="81.962997"
             id="use4180"
             width="100%"
             height="100%" />
          <use
             xlink:href="#symbol1495"
             x="117.41331"
             y="81.962997"
             id="use1827"
             width="100%"
             height="100%" />
          <use
             xlink:href="#symbol1399"
             x="120.18092"
             y="81.962997"
             id="use3815"
             width="100%"
             height="100%" />
          <use
             xlink:href="#symbol2472"
             x="124.60831"
             y="81.962997"
             id="use8261"
             width="100%"
             height="100%" />
        </g>
      </g>
    </g>
    <ellipse
       style="fill:#000000;fill-opacity:1;stroke-width:0.21605;stroke-linejoin:bevel;stroke-miterlimit:4;stroke-dasharray:none"
       id="path835-36-3"
       cx="69.92028"
       cy="39.680202"
       rx="0.60903978"
       ry="0.61466759"
       inkscape:export-xdpi="96"
       inkscape:export-ydpi="96" />
    <ellipse
       style="fill:#000000;fill-opacity:1;stroke-width:0.21605;stroke-linejoin:bevel;stroke-miterlimit:4;stroke-dasharray:none"
       id="path835-36-6"
       cx="54.819553"
       cy="40.882915"
       rx="0.60903978"
       ry="0.61466759"
       inkscape:export-xdpi="96"
       inkscape:export-ydpi="96" />
    <ellipse
       style="fill:#000000;fill-opacity:1;stroke-width:0.21605;stroke-linejoin:bevel;stroke-miterlimit:4;stroke-dasharray:none"
       id="path835-36-7"
       cx="56.690437"
       cy="25.381281"
       rx="0.60903978"
       ry="0.61466759"
       inkscape:export-xdpi="96"
       inkscape:export-ydpi="96" />
    <ellipse
       style="fill:#000000;fill-opacity:1;stroke-width:0.21605;stroke-linejoin:bevel;stroke-miterlimit:4;stroke-dasharray:none"
       id="path835-36-5"
       cx="69.385742"
       cy="17.764101"
       rx="0.60903978"
       ry="0.61466759"
       inkscape:export-xdpi="96"
       inkscape:export-ydpi="96" />
    <path
       style="fill:none;stroke:#000000;stroke-width:0.265;stroke-linecap:butt;stroke-linejoin:miter;stroke-miterlimit:4;stroke-dasharray:none;stroke-opacity:1;marker-end:url(#marker1497)"
       d="m 27.849155,47.054705 0.445495,-1.720556 -0.0011,0.507852 c 0,0 1.550362,7.741552 8.981155,13.006932 8.553369,6.060825 19.897502,6.47708 19.897502,6.47708"
       id="path403"
       sodipodi:nodetypes="cccsc"
       inkscape:export-xdpi="96"
       inkscape:export-ydpi="96" />
  </g>
</svg>
